<?xml version="1.0" standalone="no"?>
<!DOCTYPE svg PUBLIC "-//W3C//DTD SVG 20010904//EN"
 "http://www.w3.org/TR/2001/REC-SVG-20010904/DTD/svg10.dtd">
<svg version="1.0" xmlns="http://www.w3.org/2000/svg"
 width="805.000000pt" height="805.000000pt" viewBox="0 0 805.000000 805.000000"
 preserveAspectRatio="xMidYMid meet">
<metadata>
Created by potrace 1.11, written by Peter Selinger 2001-2013
</metadata>
<g transform="translate(0.000000,805.000000) scale(0.100000,-0.100000)"
fill="#000000" stroke="none">
<path d="M0 4025 l0 -4025 4025 0 4025 0 0 4025 0 4025 -4025 0 -4025 0 0
-4025z m8020 -5 l0 -3990 -3990 0 -3990 0 0 3990 0 3990 3990 0 3990 0 0
-3990z"/>
<path d="M910 4155 l0 -1005 159 0 c183 0 166 -11 177 113 3 42 9 77 13 77 3
-1 20 -20 38 -44 42 -58 139 -121 227 -149 101 -32 296 -31 411 1 242 69 399
225 477 472 20 66 23 95 23 245 0 147 -3 181 -23 250 -66 232 -236 400 -467
461 -97 25 -258 30 -349 10 -105 -24 -229 -88 -288 -149 l-48 -48 0 385 0 386
-175 0 -175 0 0 -1005z m900 103 c111 -34 195 -106 244 -208 30 -62 31 -71 31
-190 0 -117 -2 -129 -28 -182 -114 -233 -388 -304 -609 -158 -165 109 -218
374 -112 556 31 53 109 126 164 154 89 46 214 57 310 28z"/>
<path d="M2690 4155 l0 -1005 175 0 175 0 2 321 3 321 278 -321 279 -321 209
0 c176 0 209 2 209 15 0 8 -146 175 -325 372 -179 197 -323 363 -321 370 3 7
130 152 283 323 153 171 279 318 281 326 3 12 -29 14 -206 14 l-209 0 -239
-286 -239 -286 -3 581 -2 581 -175 0 -175 0 0 -1005z"/>
<path d="M4604 4594 c-206 -34 -351 -128 -416 -270 -20 -41 -23 -66 -23 -159
0 -100 3 -115 28 -166 53 -108 181 -197 344 -238 43 -11 139 -27 213 -36 161
-18 203 -30 241 -68 24 -23 29 -37 29 -76 0 -63 -30 -107 -95 -140 -45 -24
-60 -26 -165 -26 -103 1 -125 4 -210 34 -103 35 -184 77 -237 124 -18 16 -35
28 -37 26 -2 -2 -40 -58 -86 -124 l-83 -119 62 -57 c160 -148 424 -220 690
-191 210 23 336 86 433 214 97 127 104 345 16 481 -73 113 -213 180 -438 207
-209 25 -247 31 -288 52 -73 35 -100 104 -68 167 33 63 141 97 281 88 114 -8
176 -26 254 -77 34 -22 63 -40 65 -40 8 0 181 212 181 223 0 6 -35 35 -78 64
-157 106 -385 146 -613 107z"/>
<path d="M6310 4594 c-112 -22 -227 -80 -303 -155 -34 -32 -62 -59 -63 -59 -1
0 -5 35 -8 78 -11 123 6 112 -177 112 l-159 0 0 -1005 0 -1005 175 0 175 0 0
373 0 373 48 -46 c58 -56 135 -94 245 -122 118 -30 308 -22 422 16 147 50 246
123 332 243 99 138 138 290 130 497 -5 146 -25 225 -83 336 -87 167 -252 296
-439 346 -60 15 -247 27 -295 18z m250 -371 c83 -39 144 -101 184 -183 29 -61
31 -72 31 -180 0 -104 -3 -121 -27 -173 -133 -283 -536 -313 -704 -52 -81 128
-86 310 -11 438 48 81 145 154 234 177 21 5 81 8 133 7 83 -2 103 -7 160 -34z"/>
</g>
</svg>
